<?xml version="1.0" encoding="utf-8"?>
<!-- Generator: Adobe Illustrator 15.0.2, SVG Export Plug-In . SVG Version: 6.00 Build 0)  -->
<!DOCTYPE svg PUBLIC "-//W3C//DTD SVG 1.1//EN" "http://www.w3.org/Graphics/SVG/1.1/DTD/svg11.dtd">
<svg version="1.1" id="Ebene_1" xmlns="http://www.w3.org/2000/svg" xmlns:xlink="http://www.w3.org/1999/xlink" x="0px" y="0px"
	 width="60px" height="383.938px" viewBox="0 0 60 383.938" enable-background="new 0 0 60 383.938" xml:space="preserve">
<linearGradient id="SVGID_1_" gradientUnits="userSpaceOnUse" x1="14.9165" y1="490.959" x2="14.9165" y2="465.2812" gradientTransform="matrix(1 0 0 1 -0.1104 -465.2812)">
	<stop  offset="0" style="stop-color:#DFDFDF"/>
	<stop  offset="1" style="stop-color:#A1A0A0"/>
</linearGradient>
<path fill="url(#SVGID_1_)" d="M20.756,0H8.855C8.186,0,7.237,0.549,6.899,1.127L0.751,11.718c-0.336,0.574-0.336,1.667,0,2.242
	l6.148,10.592c0.337,0.579,1.284,1.126,1.956,1.126h11.901c0.671,0,1.62-0.547,1.957-1.126l6.148-10.592
	c0.336-0.575,0.336-1.666,0-2.242L22.713,1.127C22.378,0.549,21.427,0,20.756,0z M20.439,16.33
	c-1.016,2.441-1.948,5.302-3.219,5.884c-1.272,0.583-1.277,0.789-4.758,0.644c-3.478-0.146-4.224-3.044-4.224-3.044V7.407
	c0,0,0.166-0.434,0.647-0.434c0.482,0,0.628,0.427,0.628,0.427l0.01,4.469l1.072-0.08l0.031-8.305c0,0,0.26-0.534,0.882-0.557
	c0.624-0.021,0.739,0.592,0.739,0.592l-0.055,8.163l1.077-0.029l-0.097-8.772c0,0,0.165-0.74,0.995-0.74
	c0.829,0,1.063,0.769,1.063,0.769l0.104,8.625l1.376,0.003l-0.018-8.246c0,0,0.185-0.413,0.923-0.387
	c0.736,0.021,0.905,0.503,0.905,0.503v11.104l1.068-1.559c0,0,1.737-2.896,2.607-2.027C23.066,11.797,21.219,14.448,20.439,16.33z"
	/>
<linearGradient id="SVGID_2_" gradientUnits="userSpaceOnUse" x1="14.9165" y1="573.2383" x2="14.9165" y2="553.1719" gradientTransform="matrix(1 0 0 1 -0.1104 -465.2812)">
	<stop  offset="0" style="stop-color:#DFDFDF"/>
	<stop  offset="1" style="stop-color:#A1A0A0"/>
</linearGradient>
<path fill="url(#SVGID_2_)" d="M26.475,94.619l-8.686-6.729L0.501,97.557v3.188l8.286,7.213l6.821-5.51
	c0,0,5.493,6.631,10.528,2.959C32.625,100.674,26.475,94.619,26.475,94.619z M8.696,106.854l-7.461-6.344v-2.182l7.461,6.371
	V106.854z M14.988,91.961l1.857-1.221l4.682,3.789l-1.735,1.266L14.988,91.961z M23.261,105.188c-1.357,0-2.577-0.59-3.413-1.527
	c0.808,0.723,1.41,0.695,2.582,0.695c2.524,0,4.575-2.049,4.575-4.576c0-1.172,0.026-1.771-0.696-2.58
	c0.938,0.838,1.527,2.055,1.527,3.412C27.834,103.139,25.787,105.188,23.261,105.188z"/>
<linearGradient id="SVGID_3_" gradientUnits="userSpaceOnUse" x1="-485.3936" y1="75.2168" x2="-485.3936" y2="103.7285" gradientTransform="matrix(1 0 0 -1 500.1504 273.8477)">
	<stop  offset="0" style="stop-color:#DFDFDF"/>
	<stop  offset="1" style="stop-color:#A1A0A0"/>
</linearGradient>
<path fill="url(#SVGID_3_)" d="M14.76,170.119c-7.86,0-14.259,6.395-14.259,14.258c0,7.859,6.398,14.254,14.259,14.254
	c7.858,0,14.253-6.395,14.253-14.254C29.012,176.514,22.618,170.119,14.76,170.119z M27.959,184.904
	c-0.106,2.645-0.981,5.145-2.553,7.277l-1.42-4.393L27.959,184.904z M20.624,172.766l0.187-0.125
	c2.102,1.086,3.872,2.715,5.134,4.725l-4.574-0.051L20.624,172.766z M14.192,194.885l2.818,2.59
	c-2.545,0.373-3.735,0.438-6.071-0.369L14.192,194.885z M9.951,186.137l2.691-5.949l6.489,0.717l1.323,6.398l-5.671,4.262
	L9.951,186.137z M11.048,171.699l0.258,0.195l-1.641,4.939l-5.21-0.092l-0.14-0.441C6.02,174.104,8.399,172.477,11.048,171.699z
	 M5.746,187.486l-1.016,4.982l-0.373,0.043c-1.68-2.137-2.635-4.682-2.789-7.391L5.746,187.486z"/>
<linearGradient id="SVGID_4_" gradientUnits="userSpaceOnUse" x1="-485.4102" y1="-17.48" x2="-485.4102" y2="13.0571" gradientTransform="matrix(1 0 0 -1 500.1504 273.8477)">
	<stop  offset="0" style="stop-color:#DFDFDF"/>
	<stop  offset="1" style="stop-color:#A1A0A0"/>
</linearGradient>
<path fill="url(#SVGID_4_)" d="M16.882,283.559L16.882,283.559c2.981-0.631,5.354-3.496,5.354-3.496
	c7.666-7.889,6.824-13.807,6.601-16.264h-3.281l0.011,2.541l1.037,0.012c0.401,7.494-7.074,12.928-6.935,12.754
	c2.093-2.645,2.852-8.496,3.145-12.734l0.137-2.666c0.055-1.75,0.03-2.914,0.03-2.914H6.498c0,0-0.024,1.16,0.03,2.914l0.137,2.666
	c0.294,4.238,1.051,10.09,3.146,12.734c0.136,0.174-7.336-5.262-6.937-12.754l1.039-0.012l0.01-2.541H0.643
	c-0.221,2.457-1.062,8.375,6.602,16.264c0,0,2.374,2.865,5.355,3.496l0,0c0,0-1.564,6.1-7.884,6.619l0.072,1.119h0.727l0.001,0.031
	l9.225-0.016l9.223,0.016l0.002-0.031h0.726l0.075-1.119C18.445,289.658,16.882,283.559,16.882,283.559z"/>
<g>
	
		<linearGradient id="SVGID_5_" gradientUnits="userSpaceOnUse" x1="1.8418" y1="-243.2578" x2="15.432" y2="-225.223" gradientTransform="matrix(1 0 0 -1 -0.0552 129.8594)">
		<stop  offset="0" style="stop-color:#DFDFDF"/>
		<stop  offset="1" style="stop-color:#A1A0A0"/>
	</linearGradient>
	<path fill="url(#SVGID_5_)" d="M16.363,355.947l-11.408-2.209c-0.551-0.107-1.089,0.273-1.198,0.844l-3.237,16.822
		c-0.109,0.572,0.246,1.125,0.797,1.232l10.676,2.111c0.551,0.109,1.088-0.273,1.199-0.846l0.846-4.455
		c-0.603-0.488-1.053-0.758-1.835-1.221c-1.816-1.07-2.117-3.289-1.767-4.455c0.297-0.986,1.8-1.791,2.562-1.633
		c0.52,0.109,1.391,0.445,1.391,0.445s0.796,0.766,1.367,1.154l1.405-6.559C17.269,356.605,16.914,356.055,16.363,355.947z"/>
	
		<linearGradient id="SVGID_6_" gradientUnits="userSpaceOnUse" x1="13.1797" y1="-254.7905" x2="19.4864" y2="-246.4213" gradientTransform="matrix(1 0 0 -1 -0.0552 129.8594)">
		<stop  offset="0" style="stop-color:#DFDFDF"/>
		<stop  offset="1" style="stop-color:#A1A0A0"/>
	</linearGradient>
	<path fill="url(#SVGID_6_)" d="M20.989,378.053c0.35,0.518,0.197,1.234-0.34,1.6l-6.759,4.564c-0.539,0.367-1.261,0.24-1.611-0.279
		l-0.714-1.059c-0.351-0.521-0.198-1.234,0.34-1.6l6.76-4.568c0.54-0.365,1.262-0.236,1.611,0.281L20.989,378.053z"/>
	
		<linearGradient id="SVGID_7_" gradientUnits="userSpaceOnUse" x1="8.377" y1="-249.2393" x2="17.8862" y2="-236.6203" gradientTransform="matrix(1 0 0 -1 -0.0552 129.8594)">
		<stop  offset="0" style="stop-color:#DFDFDF"/>
		<stop  offset="1" style="stop-color:#A1A0A0"/>
	</linearGradient>
	<path fill="url(#SVGID_7_)" d="M18.459,375.568l0.984-5.117c0,0,0.969-2.475-1.224-3.625c-2.191-1.146-3.512-2.207-3.512-2.207
		s-0.454-0.5-0.879-0.816c-0.425-0.322-1.331-0.148-1.727,0.357c-0.375,0.473-0.591,1.76,0.555,2.4
		c1.143,0.643,2.75,1.557,2.911,2.096c0.16,0.541-1.225,6.705-1.225,6.705s-0.468,1.033-1.693,0.896
		c-2.333-0.266-6.398-1.24-6.398-1.24l3.42,5.07c0,0,0.75,0.807,1.493,0.408C11.907,380.096,18.459,375.568,18.459,375.568z"/>
</g>
</svg>
